<?xml version="1.0" encoding="utf-8"?>
<!-- Generator: Adobe Illustrator 23.0.3, SVG Export Plug-In . SVG Version: 6.00 Build 0)  -->
<svg version="1.1" id="Capa_1" xmlns="http://www.w3.org/2000/svg" xmlns:xlink="http://www.w3.org/1999/xlink" x="0px" y="0px"
	 viewBox="0 0 46.5 48" style="enable-background:new 0 0 46.5 48;" xml:space="preserve">
<style type="text/css">
	.st0{display:none;}
	.st1{display:inline;opacity:0.7;}
	.st2{fill:#2C3963;}
	.st3{display:inline;}
	.st4{clip-path:url(#SVGID_2_);fill:#FFFFFF;}
	.st5{fill:#FFFFFF;}
	.st6{opacity:0.7;clip-path:url(#SVGID_4_);fill:#2C3963;enable-background:new    ;}
	.st7{display:inline;opacity:0.71;}
	.st8{fill:#008341;}
	.st9{opacity:0.72;clip-path:url(#SVGID_6_);fill:#008A3F;enable-background:new    ;}
	.st10{fill:#7A8634;}
	.st11{clip-path:url(#SVGID_8_);fill:#678432;}
	.st12{display:none;clip-path:url(#SVGID_10_);fill:#5A682E;}
</style>
<g id="EUROMILLONES-NOSELECIONADO" class="st0">
	<g class="st1">
		<ellipse class="st2" cx="22.8" cy="24.3" rx="20.9" ry="21.3"/>
	</g>
	<g class="st3">
		<g>
			<g>
				<defs>
					<ellipse id="SVGID_1_" cx="23.3" cy="27.9" rx="6.1" ry="6.6"/>
				</defs>
				<clipPath id="SVGID_2_">
					<use xlink:href="#SVGID_1_"  style="overflow:visible;"/>
				</clipPath>
				<path class="st4" d="M29.4,27.6c0-0.1,0-0.2,0-0.2v-0.1v-0.1c0-0.2,0-0.3-0.1-0.5c0-0.3-0.1-0.6-0.2-0.9s-0.2-0.5-0.3-0.8
					c-0.2-0.5-0.4-0.9-0.7-1.3c-0.1-0.2-0.2-0.3-0.4-0.5c0-0.1-0.1-0.1-0.1-0.1V23l0,0l0,0l0,0c0,0,0-0.1-0.1-0.1
					c-0.2-0.2-0.3-0.4-0.5-0.6s-0.4-0.3-0.6-0.5c-0.1,0-0.1-0.1-0.2-0.1s-0.1-0.1-0.2-0.1s-0.1-0.1-0.2-0.1h-0.1h-0.1l0,0l0,0l0,0
					h-0.1h-0.1l0,0l0,0h-0.1l0,0l0,0c-0.1,0-0.1,0-0.2-0.1c-0.2-0.1-0.4-0.1-0.6-0.2c-0.4-0.1-0.9-0.2-1.4-0.2s-0.9,0.1-1.4,0.2
					c-0.2,0.1-0.5,0.1-0.7,0.2s-0.4,0.2-0.6,0.3c-0.4,0.2-0.8,0.5-1.2,0.9c-0.4,0.3-0.7,0.7-1,1.1c-0.1,0.1-0.1,0.2-0.2,0.3
					c0,0.1-0.1,0.1-0.1,0.2v0.1l0,0l0,0l0,0v0.1v0.1l0,0l0,0v0.1c0,0.1-0.1,0.1-0.1,0.2s-0.1,0.1-0.1,0.2c-0.2,0.5-0.4,1-0.5,1.5
					c0,0.1,0,0.3-0.1,0.4c0,0.1,0,0.3,0,0.4c0,0.3,0,0.5,0,0.8c0,0.5,0.1,1,0.2,1.5c0.2,1,0.6,2,1.2,2.8c0.3,0.4,0.6,0.8,1,1.1
					l0.1,0.1l0,0l0,0h0.1l0,0l0,0l0,0l0.1,0.1c0.1,0,0.1,0.1,0.1,0.1c0.2,0.1,0.4,0.2,0.6,0.3c0.4,0.2,0.9,0.4,1.3,0.4
					c0.2,0,0.4,0.1,0.7,0.1c0.2,0,0.4,0,0.7,0c0.9,0,1.7-0.3,2.4-0.6c0.7-0.4,1.4-0.9,1.9-1.4c0.1-0.1,0.3-0.3,0.4-0.4l0.1-0.1
					l0.1-0.1v-0.1l0,0l0,0l0,0c0,0,0-0.1,0.1-0.1l0.1-0.1l0,0l0,0v-0.1v-0.1v-0.1c0,0,0-0.1,0.1-0.1c0.1-0.2,0.2-0.3,0.2-0.5
					c0.1-0.2,0.1-0.3,0.2-0.5s0.1-0.3,0.2-0.5c0-0.2,0.1-0.3,0.1-0.5s0.1-0.3,0.1-0.5C29.4,28.3,29.5,28,29.4,27.6z M26.8,25.9
					c0,1.7-1.3,3.2-2.9,3.2S21,27.6,21,25.9c0-1.4,0.8-2.6,2-3l0,0l0,0l0,0l0,0l0,0c0.2-0.1,0.5-0.1,0.8-0.1
					C25.5,22.7,26.8,24.1,26.8,25.9z M28,28.7c0,0.3-0.1,0.5-0.2,0.8c0,0.1-0.1,0.3-0.1,0.4c-0.1,0.1-0.1,0.3-0.2,0.4
					s-0.1,0.3-0.2,0.4c0,0,0,0.1-0.1,0.1l0,0l0,0l0,0l0,0l0,0c0,0,0,0.1-0.1,0.1L27,31l0,0l0,0l0,0l0,0c0,0,0,0.1-0.1,0.1
					c0,0,0,0.1-0.1,0.1c-0.1,0.1-0.2,0.2-0.3,0.3c-0.2,0.2-0.5,0.4-0.7,0.6c-0.3,0.2-0.5,0.3-0.8,0.4c-0.6,0.2-1.2,0.3-1.8,0.2
					c-0.6,0-1.2-0.2-1.8-0.5c-0.1-0.1-0.3-0.2-0.4-0.3l-0.1-0.1l0,0l0,0l0,0l0,0h-0.1l0,0l0,0l0,0l-0.1-0.1
					c-0.3-0.2-0.5-0.5-0.7-0.7c-0.2-0.3-0.4-0.6-0.6-0.9c-0.1-0.2-0.2-0.3-0.2-0.5c-0.1-0.2-0.1-0.3-0.2-0.5
					c-0.1-0.4-0.2-0.7-0.2-1.1c0-0.2,0-0.4,0-0.6s0-0.4,0-0.6c0.1-0.4,0.1-0.7,0.3-1.1c0,0,0-0.1,0.1-0.1c0,0,0-0.1,0.1-0.1v-0.1
					l0,0l0,0v-0.1v-0.1l0,0l0,0l0,0v-0.1l0.1-0.1c0.1-0.1,0.1-0.2,0.2-0.2c0.4-0.6,0.9-1,1.4-1.4c0,0,0,0,0,0.1l-0.1,0.1l-0.1,0.1
					c-0.1,0.1-0.1,0.2-0.2,0.3c-0.1,0.1-0.1,0.2-0.2,0.4c0,0.1-0.1,0.3-0.1,0.4c-0.2,0.5-0.2,1.2-0.1,1.8c0.1,0.6,0.3,1.3,0.7,2
					c0,0.1,0.1,0.2,0.1,0.2l0.1,0.1V29l0,0l0,0l0,0l0,0l0,0l0,0l0,0l0.1,0.1l0,0l0,0l0.1,0.1l0.1,0.1c0.1,0.1,0.3,0.3,0.4,0.4
					c0.2,0.1,0.3,0.2,0.5,0.3c0.4,0.2,0.8,0.3,1.2,0.4c0.2,0,0.4,0.1,0.6,0c0.1,0,0.1,0,0.2,0h0.1l0,0l0,0l0,0h0.1l0,0l0,0l0,0h0.1
					l0,0l0,0c0.2,0,0.4-0.1,0.6-0.2c0.1,0,0.2-0.1,0.3-0.1c0.1,0,0.2-0.1,0.3-0.2c0.4-0.2,0.7-0.5,1-0.8s0.6-0.7,0.8-1.2v-0.1l0,0
					l0,0l0,0v-0.1v-0.1l0,0l0,0v-0.1C28,28,28,28.4,28,28.7z"/>
			</g>
		</g>
	</g>
	<g class="st3">
		<g>
			<path class="st5" d="M33.2,34.9h-2.6c0,0-0.1,0-0.1-0.1v-1.4c0,0,0-0.1,0.1-0.1h1.2c0,0,0.1,0,0.1-0.1V15.6c0,0,0-0.1-0.1-0.1
				H14.6c0,0-0.1,0-0.1,0.1v17.7c0,0,0,0.1,0.1,0.1h1.1c0,0,0.1,0,0.1,0.1v1.4c0,0,0,0.1-0.1,0.1h-2.6c0,0-0.1,0-0.1-0.1V14
				c0,0,0-0.1,0.1-0.1h20.1c0,0,0.1,0,0.1,0.1L33.2,34.9L33.2,34.9z"/>
		</g>
	</g>
	<g class="st3">
		<g>
			<defs>
				<ellipse id="SVGID_3_" cx="23.1" cy="24.3" rx="20.6" ry="21.3"/>
			</defs>
			<clipPath id="SVGID_4_">
				<use xlink:href="#SVGID_3_"  style="overflow:visible;"/>
			</clipPath>
			<polygon class="st6" points="33.3,14 47.2,31.9 43.6,49.1 35.7,48.1 26.5,49.1 13.2,34.9 33.3,34.9 			"/>
		</g>
	</g>
</g>
<g class="st0">
	<g class="st7">
		<ellipse class="st8" cx="23.2" cy="24.6" rx="21.3" ry="20.9"/>
	</g>
	<g class="st3">
		<g>
			<defs>
				<ellipse id="SVGID_5_" cx="23.2" cy="24.6" rx="21.3" ry="20.9"/>
			</defs>
			<clipPath id="SVGID_6_">
				<use xlink:href="#SVGID_5_"  style="overflow:visible;"/>
			</clipPath>
			<polygon class="st9" points="34.3,14.3 47.2,27.7 47.2,45.5 36.6,46.3 24.7,47.6 12.2,35.5 34.3,35.5 			"/>
		</g>
	</g>
	<g class="st3">
		<g>
			<g>
				<polygon class="st5" points="34.3,35.5 31.3,35.5 31.3,34 32.7,34 32.7,15.9 13.8,15.9 13.8,34 15.1,34 15.1,35.5 12.2,35.5 
					12.2,14.3 34.3,14.3 				"/>
			</g>
		</g>
		<g>
			<path class="st5" d="M30.1,29.3c0-0.3,0.1-0.6,0.1-0.9s0-0.6-0.1-0.9c-2.1-0.2-4.3-0.3-6.8-0.3c-2.8,0-5.3,0.2-6.9,0.3
				c0,0.3-0.1,0.6-0.1,0.9s0,0.6,0.1,1c1.5,0.1,3.9,0.3,6.9,0.3C25.5,29.6,27.9,29.5,30.1,29.3z"/>
			<path class="st5" d="M28.6,32.5c0.5-0.6,0.9-1.4,1.2-2.1c-2.1,0.2-4.4,0.2-6.5,0.2c-2.8,0-5.1-0.1-6.7-0.2
				c0.3,0.8,0.7,1.5,1.2,2.1c1.5,0.3,3.4,0.5,5.5,0.5C25,33,26.8,32.9,28.6,32.5z"/>
			<path class="st5" d="M17.8,24.3c-0.5,0.6-0.9,1.4-1.2,2.1c1.7-0.1,4.1-0.3,6.7-0.3c2.3,0,4.5,0.1,6.5,0.3
				c-0.3-0.8-0.7-1.5-1.2-2.1c-1.5-0.3-3.4-0.6-5.3-0.6C21.6,23.7,19.7,23.9,17.8,24.3z"/>
			<path class="st5" d="M23.3,22.7c1.4,0,2.7,0.1,3.9,0.3c-1.1-0.8-2.5-1.2-4-1.2s-2.9,0.5-4,1.2C20.6,22.8,22,22.7,23.3,22.7z"/>
			<path class="st5" d="M23.3,34.1c-1.5,0-2.8-0.1-4-0.3c1.1,0.8,2.5,1.2,4,1.2s2.8-0.4,4-1.2C25.9,34,24.6,34.1,23.3,34.1z"/>
		</g>
	</g>
</g>
<g>
	<g>
		<circle class="st10" cx="23.3" cy="23.9" r="20.7"/>
	</g>
	<g class="st0">
		<g class="st3">
			<defs>
				<path id="SVGID_7_" d="M23.1,44.6h0.4c11.3,0,20.5-9.2,20.5-20.5v-0.4c0-11.3-9.2-20.5-20.5-20.5h-0.4
					c-11.3,0-20.5,9.2-20.5,20.5v0.4C2.6,35.3,11.8,44.6,23.1,44.6z"/>
			</defs>
			<clipPath id="SVGID_8_">
				<use xlink:href="#SVGID_7_"  style="overflow:visible;"/>
			</clipPath>
			<polyline class="st11" points="44,47 23.8,48.8 44,47 44,25.4 33.1,13.5 33.1,34 11.9,34 22.5,46.5 			"/>
		</g>
		<g class="st3">
			<defs>
				<path id="SVGID_9_" d="M23.1,44.6h0.4c11.3,0,20.5-9.2,20.5-20.5v-0.4c0-11.3-9.2-20.5-20.5-20.5h-0.4
					c-11.3,0-20.5,9.2-20.5,20.5v0.4C2.6,35.3,11.8,44.6,23.1,44.6z"/>
			</defs>
			<clipPath id="SVGID_10_">
				<use xlink:href="#SVGID_9_"  style="overflow:visible;"/>
			</clipPath>
			<polygon class="st12" points="34.2,37 38.7,42.5 24.5,51.5 11.9,37 			"/>
		</g>
	</g>
	<g>
		<g>
			<g>
				<polygon class="st5" points="33.1,34 30.2,34 30.2,32.5 31.6,32.5 31.6,15 13.4,15 13.4,32.5 14.7,32.5 14.7,34 11.9,34 
					11.9,13.5 33.1,13.5 				"/>
			</g>
		</g>
		<g>
			<g>
				<path class="st5" d="M17.6,25.9c-1.2-1.1-1.4-2.7-0.3-3.9c1.2-1.1,2.8-0.9,4,0.2c1.4,1.4,0,3.6,0.6,4.2c0,0,0,0.1-0.1,0.1
					C21.3,25.9,19.1,27.3,17.6,25.9z"/>
				<path class="st5" d="M27.4,25.9c1.2-1.1,1.4-2.7,0.3-3.9s-2.8-0.9-4,0.2c-1.4,1.4,0,3.6-0.6,4.2c0,0,0,0.1,0.1,0.1
					C23.6,25.9,25.9,27.3,27.4,25.9z"/>
				<path class="st5" d="M17.6,27.8c-1.2,1.1-1.4,2.7-0.3,3.9c1.2,1.1,2.8,0.9,4-0.2c1.4-1.4,0-3.6,0.6-4.2c0,0,0-0.1-0.1-0.1
					C21.3,27.8,19.1,26.4,17.6,27.8z"/>
				<path class="st5" d="M27.4,27.8c1.2,1.1,1.4,2.7,0.3,3.9s-2.8,0.9-4-0.2c-1.4-1.4,0-3.6-0.6-4.2c0,0,0-0.1,0.1-0.1
					C23.6,27.8,25.9,26.4,27.4,27.8z"/>
			</g>
			<path class="st5" d="M21.5,36c-0.2,0-0.3,0-0.4-0.1c-0.3-0.2-0.4-0.7-0.1-1c0.8-0.9,0.9-2.1,0.8-2.9c0-0.4,0.3-0.7,0.7-0.7
				c0.4,0,0.7,0.3,0.7,0.7c0.1,1.5-0.3,2.8-1.1,3.8C21.9,36,21.7,36,21.5,36z"/>
		</g>
	</g>
</g>
</svg>
