<?xml version="1.0" encoding="utf-8"?>
<!-- Generator: Adobe Illustrator 23.0.3, SVG Export Plug-In . SVG Version: 6.00 Build 0)  -->
<svg version="1.1" id="Capa_1" xmlns="http://www.w3.org/2000/svg" xmlns:xlink="http://www.w3.org/1999/xlink" x="0px" y="0px"
	 viewBox="0 0 46.5 48" style="enable-background:new 0 0 46.5 48;" xml:space="preserve">
<style type="text/css">
	.st0{fill:#153F69;}
	.st1{clip-path:url(#SVGID_2_);fill:#FFFFFF;}
	.st2{fill:#FFFFFF;}
	.st3{display:none;}
	.st4{display:inline;}
	.st5{opacity:0.7;clip-path:url(#SVGID_4_);fill:#2C3963;enable-background:new    ;}
</style>
<g id="EUROMILLONES-NOSELECIONADO">
	<g>
		<ellipse class="st0" cx="22.8" cy="24.3" rx="20.9" ry="21.3"/>
	</g>
	<g>
		<g>
			<g>
				<defs>
					<ellipse id="SVGID_1_" cx="23.3" cy="27.9" rx="6.1" ry="6.6"/>
				</defs>
				<clipPath id="SVGID_2_">
					<use xlink:href="#SVGID_1_"  style="overflow:visible;"/>
				</clipPath>
				<path class="st1" d="M29.4,27.6c0-0.1,0-0.2,0-0.2v-0.1v-0.1c0-0.2,0-0.3-0.1-0.5c0-0.3-0.1-0.6-0.2-0.9s-0.2-0.5-0.3-0.8
					c-0.2-0.5-0.4-0.9-0.7-1.3c-0.1-0.2-0.2-0.3-0.4-0.5c0-0.1-0.1-0.1-0.1-0.1V23l0,0l0,0l0,0c0,0,0-0.1-0.1-0.1
					c-0.2-0.2-0.3-0.4-0.5-0.6s-0.4-0.3-0.6-0.5c-0.1,0-0.1-0.1-0.2-0.1s-0.1-0.1-0.2-0.1s-0.1-0.1-0.2-0.1h-0.1h-0.1l0,0l0,0l0,0
					h-0.1h-0.1l0,0l0,0h-0.1l0,0l0,0c-0.1,0-0.1,0-0.2-0.1c-0.2-0.1-0.4-0.1-0.6-0.2c-0.4-0.1-0.9-0.2-1.4-0.2s-0.9,0.1-1.4,0.2
					c-0.2,0.1-0.5,0.1-0.7,0.2s-0.4,0.2-0.6,0.3c-0.4,0.2-0.8,0.5-1.2,0.9c-0.4,0.3-0.7,0.7-1,1.1c-0.1,0.1-0.1,0.2-0.2,0.3
					c0,0.1-0.1,0.1-0.1,0.2v0.1l0,0l0,0l0,0v0.1v0.1l0,0l0,0v0.1c0,0.1-0.1,0.1-0.1,0.2s-0.1,0.1-0.1,0.2c-0.2,0.5-0.4,1-0.5,1.5
					c0,0.1,0,0.3-0.1,0.4c0,0.1,0,0.3,0,0.4c0,0.3,0,0.5,0,0.8c0,0.5,0.1,1,0.2,1.5c0.2,1,0.6,2,1.2,2.8c0.3,0.4,0.6,0.8,1,1.1
					l0.1,0.1l0,0l0,0h0.1l0,0l0,0l0,0l0.1,0.1c0.1,0,0.1,0.1,0.1,0.1c0.2,0.1,0.4,0.2,0.6,0.3c0.4,0.2,0.9,0.4,1.3,0.4
					c0.2,0,0.4,0.1,0.7,0.1c0.2,0,0.4,0,0.7,0c0.9,0,1.7-0.3,2.4-0.6c0.7-0.4,1.4-0.9,1.9-1.4c0.1-0.1,0.3-0.3,0.4-0.4l0.1-0.1
					l0.1-0.1v-0.1l0,0l0,0l0,0c0,0,0-0.1,0.1-0.1l0.1-0.1l0,0l0,0v-0.1v-0.1v-0.1c0,0,0-0.1,0.1-0.1c0.1-0.2,0.2-0.3,0.2-0.5
					c0.1-0.2,0.1-0.3,0.2-0.5s0.1-0.3,0.2-0.5c0-0.2,0.1-0.3,0.1-0.5s0.1-0.3,0.1-0.5C29.4,28.3,29.5,28,29.4,27.6z M26.8,25.9
					c0,1.7-1.3,3.2-2.9,3.2S21,27.6,21,25.9c0-1.4,0.8-2.6,2-3l0,0l0,0l0,0l0,0l0,0c0.2-0.1,0.5-0.1,0.8-0.1
					C25.5,22.7,26.8,24.1,26.8,25.9z M28,28.7c0,0.3-0.1,0.5-0.2,0.8c0,0.1-0.1,0.3-0.1,0.4c-0.1,0.1-0.1,0.3-0.2,0.4
					s-0.1,0.3-0.2,0.4c0,0,0,0.1-0.1,0.1l0,0l0,0l0,0l0,0l0,0c0,0,0,0.1-0.1,0.1L27,31l0,0l0,0l0,0l0,0c0,0,0,0.1-0.1,0.1
					c0,0,0,0.1-0.1,0.1c-0.1,0.1-0.2,0.2-0.3,0.3c-0.2,0.2-0.5,0.4-0.7,0.6c-0.3,0.2-0.5,0.3-0.8,0.4c-0.6,0.2-1.2,0.3-1.8,0.2
					c-0.6,0-1.2-0.2-1.8-0.5c-0.1-0.1-0.3-0.2-0.4-0.3l-0.1-0.1l0,0l0,0l0,0l0,0h-0.1l0,0l0,0l0,0l-0.1-0.1
					c-0.3-0.2-0.5-0.5-0.7-0.7c-0.2-0.3-0.4-0.6-0.6-0.9c-0.1-0.2-0.2-0.3-0.2-0.5c-0.1-0.2-0.1-0.3-0.2-0.5
					c-0.1-0.4-0.2-0.7-0.2-1.1c0-0.2,0-0.4,0-0.6s0-0.4,0-0.6c0.1-0.4,0.1-0.7,0.3-1.1c0,0,0-0.1,0.1-0.1c0,0,0-0.1,0.1-0.1v-0.1
					l0,0l0,0v-0.1v-0.1l0,0l0,0l0,0v-0.1l0.1-0.1c0.1-0.1,0.1-0.2,0.2-0.2c0.4-0.6,0.9-1,1.4-1.4c0,0,0,0,0,0.1l-0.1,0.1l-0.1,0.1
					c-0.1,0.1-0.1,0.2-0.2,0.3c-0.1,0.1-0.1,0.2-0.2,0.4c0,0.1-0.1,0.3-0.1,0.4c-0.2,0.5-0.2,1.2-0.1,1.8c0.1,0.6,0.3,1.3,0.7,2
					c0,0.1,0.1,0.2,0.1,0.2l0.1,0.1V29l0,0l0,0l0,0l0,0l0,0l0,0l0,0l0.1,0.1l0,0l0,0l0.1,0.1l0.1,0.1c0.1,0.1,0.3,0.3,0.4,0.4
					c0.2,0.1,0.3,0.2,0.5,0.3c0.4,0.2,0.8,0.3,1.2,0.4c0.2,0,0.4,0.1,0.6,0c0.1,0,0.1,0,0.2,0h0.1l0,0l0,0l0,0h0.1l0,0l0,0l0,0h0.1
					l0,0l0,0c0.2,0,0.4-0.1,0.6-0.2c0.1,0,0.2-0.1,0.3-0.1c0.1,0,0.2-0.1,0.3-0.2c0.4-0.2,0.7-0.5,1-0.8s0.6-0.7,0.8-1.2v-0.1l0,0
					l0,0l0,0v-0.1v-0.1l0,0l0,0v-0.1C28,28,28,28.4,28,28.7z"/>
			</g>
		</g>
	</g>
	<g>
		<g>
			<path class="st2" d="M33.2,34.1h-2.6c0,0-0.1,0-0.1-0.1v-1.3c0,0,0-0.1,0.1-0.1h1.2c0,0,0.1,0,0.1-0.1V15.5c0,0,0-0.1-0.1-0.1
				H14.6c0,0-0.1,0-0.1,0.1v17c0,0,0,0.1,0.1,0.1h1.1c0,0,0.1,0,0.1,0.1v1.3c0,0,0,0.1-0.1,0.1h-2.6c0,0-0.1,0-0.1-0.1V14
				c0,0,0-0.1,0.1-0.1h20.1c0,0,0.1,0,0.1,0.1L33.2,34.1L33.2,34.1z"/>
		</g>
	</g>
	<g class="st3">
		<g class="st4">
			<defs>
				<ellipse id="SVGID_3_" cx="23.1" cy="24.3" rx="20.6" ry="21.3"/>
			</defs>
			<clipPath id="SVGID_4_">
				<use xlink:href="#SVGID_3_"  style="overflow:visible;"/>
			</clipPath>
			<polygon class="st5" points="33.3,14 47.2,31.9 43.6,49.1 35.7,48.1 26.5,49.1 13.2,34.9 33.3,34.9 			"/>
		</g>
	</g>
</g>
</svg>
