<?xml version="1.0" encoding="utf-8"?>
<svg version="1.1" id="Capa_1" x="0px" y="0px" viewBox="0 0 46.5 48" style="enable-background:new 0 0 46.5 48;" xmlns="http://www.w3.org/2000/svg">
  <style type="text/css">
	.st0{display:none;}
	.st1{display:inline;opacity:0.7;}
	.st2{fill:#2C3963;}
	.st3{display:inline;}
	.st4{clip-path:url(#SVGID_2_);fill:#FFFFFF;}
	.st5{fill:#FFFFFF;}
	.st6{opacity:0.7;clip-path:url(#SVGID_4_);fill:#2C3963;enable-background:new    ;}
	.st7{display:inline;opacity:0.71;}
	.st8{fill:#008341;}
	.st9{opacity:0.72;clip-path:url(#SVGID_6_);fill:#008A3F;enable-background:new    ;}
	.st10{fill:#678432;}
	.st11{clip-path:url(#SVGID_8_);fill:#678432;}
	.st12{display:none;clip-path:url(#SVGID_10_);fill:#5A682E;}
	.st13{fill:#DC3F47;}
	.st14{clip-path:url(#SVGID_12_);}
	.st15{display:none;fill:#D73C52;}
</style>
  <g id="GORDO-NOSELECCIONADO" style="">
    <g>
      <circle class="st13" cx="22.9" cy="24.2" r="20.7" style="stroke: rgb(0, 0, 0); vector-effect: non-scaling-stroke; fill: none;"/>
    </g>
    <g>
      <g>
        <defs>
          <circle id="SVGID_11_" cx="22.9" cy="24.2" r="20.7"/>
        </defs>
        <clipPath id="SVGID_12_">
          <circle cx="22.9" cy="24.2" r="20.7" style="overflow: visible;"/>
        </clipPath>
        <g class="st14">
          <g>
            <g>
              <polygon class="st5" points="33.5,34.3 30.6,34.3 30.6,32.8 32,32.8 32,15.3 13.8,15.3 13.8,32.8 15.1,32.8 15.1,34.3 &#10;&#9;&#9;&#9;&#9;&#9;&#9;&#9;12.3,34.3 12.3,13.8 33.5,13.8 &#9;&#9;&#9;&#9;&#9;&#9;" style="stroke: rgb(0, 0, 0); vector-effect: non-scaling-stroke; fill: none;"/>
            </g>
          </g>
          <g>
            <path class="st5" d="M29.4,28.3c0-0.3,0.1-0.6,0.1-0.9s0-0.6-0.1-0.9c-2-0.1-4.1-0.3-6.5-0.3c-2.6,0-5,0.2-6.6,0.3 c0,0.3-0.1,0.6-0.1,0.9s0,0.6,0.1,0.9c1.4,0.1,3.7,0.3,6.6,0.3C25.1,28.5,27.3,28.5,29.4,28.3z" style="stroke: rgb(0, 0, 0); vector-effect: non-scaling-stroke; fill: none;"/>
            <path class="st5" d="M28,31.4c0.5-0.6,0.9-1.3,1.2-2.1c-2.1,0.2-4.2,0.2-6.2,0.2c-2.7,0-4.9-0.1-6.4-0.2 c0.3,0.8,0.6,1.5,1.2,2.1c1.4,0.3,3.2,0.5,5.2,0.5C24.6,31.9,26.3,31.7,28,31.4z" style="stroke: rgb(0, 0, 0); vector-effect: non-scaling-stroke; fill: none;"/>
            <path class="st5" d="M17.7,23.4c-0.5,0.6-0.9,1.3-1.1,2.1c1.6-0.1,3.9-0.3,6.4-0.3c2.2,0,4.3,0.1,6.2,0.3 c-0.2-0.8-0.6-1.5-1.1-2.1c-1.4-0.3-3.2-0.5-5.1-0.5C21.3,22.9,19.5,23,17.7,23.4z" style="stroke: rgb(0, 0, 0); vector-effect: non-scaling-stroke; fill: none;"/>
            <path class="st5" d="M23,21.9c1.3,0,2.6,0.1,3.8,0.3C25.7,21.5,24.4,21,23,21s-2.8,0.4-3.8,1.2C20.4,22,21.7,21.9,23,21.9z" style="stroke: rgb(0, 0, 0); vector-effect: non-scaling-stroke; fill: none;"/>
            <path class="st5" d="M23,32.9c-1.4,0-2.7-0.1-3.9-0.3c1.1,0.7,2.4,1.2,3.8,1.2s2.7-0.4,3.8-1.2C25.4,32.8,24.2,32.9,23,32.9z" style="stroke: rgb(0, 0, 0); vector-effect: non-scaling-stroke; fill: none;"/>
          </g>
        </g>
      </g>
    </g>
  </g>
</svg>